# AST/ASF file generated using VICON BodyLanguage
# -----------------------------------------------
:version 1.10
:name VICON
:units
  mass 1.0
  length 0.45
  angle deg
:documentation
   .ast/.asf automatically generated from VICON data using
   VICON BodyBuilder and BodyLanguage model FoxedUp or BRILLIANT.MOD
:root
   order TX TY TZ RX RY RZ
   axis XYZ
   position 0 0 0  
   orientation 0 0 0 
:bonedata
  begin
     id 1 
     name lhipjoint
     direction 0.575328 -0.747301 0.332475 
     length 2.40933 
     axis 0 0 0  XYZ
  end
  begin
     id 2 
     name lfemur
     direction 0.34202 -0.939693 0  
     length 7.31453  
     axis 0 0 20  XYZ
    dof rx ry rz
    limits (-160.0 20.0)
           (-70.0 70.0)
           (-60.0 70.0)
  end
  begin
     id 3 
     name ltibia
     direction 0.34202 -0.939693 0   
     length 7.82185   
     axis 0 0 20   XYZ
    dof rx
    limits (-10.0 170.0)
  end
  begin
     id 4 
     name lfoot
     direction 0.0795993 -0.218697 0.972541   
     length 2.19173   
     axis -90 7.62852e-016 20   XYZ
    dof rx rz
    limits (-45.0 90.0)
           (-70.0 20.0)
  end
  begin
     id 5 
     name ltoes
     direction 1.53537e-011 -4.21894e-011 1   
     length 1.10023   
     axis -90 7.62852e-016 20   XYZ
    dof rx
    limits (-90.0 20.0)
  end
  begin
     id 6 
     name rhipjoint
     direction -0.513884 -0.783789 0.348708   
     length 2.29716  
     axis 0 0 0  XYZ 
  end
  begin
     id 7 
     name rfemur
     direction -0.34202 -0.939693 0   
     length 7.59573   
     axis 0 0 -20   XYZ
    dof rx ry rz
    limits (-160.0 20.0)
           (-70.0 70.0)
           (-70.0 60.0)
  end
  begin
     id 8 
     name rtibia
     direction -0.34202 -0.939693 0   
     length 7.66402   
     axis 0 0 -20   XYZ
    dof rx
    limits (-10.0 170.0)
 end
 begin
     id 9 
     name rfoot
     direction -0.137793 -0.378584 0.915253   
     length 2.27056  
     axis -90 -7.62852e-016 -20   XYZ
    dof rx rz
    limits (-45.0 90.0)
           (-20.0 70.0)
  end
  begin
     id 10 
     name rtoes
     direction -1.53493e-011 -4.22159e-011 1   
     length 1.11766   
     axis -90 -7.62852e-016 -20   XYZ
    dof rx
    limits (-90.0 20.0)
  end
  begin
     id 11 
     name lowerback
     direction -0.00732775 0.998356 -0.05685   
     length 2.16513   
     axis 0 0 0   XYZ
    dof rx ry rz
    limits (-20.0 45.0)
           (-30.0 30.0)
           (-30.0 30.0)
  end
  begin
     id 12 
     name upperback
     direction 0.0218081 0.999627 -0.0164647   
     length 2.16755   
     axis 0 0 0   XYZ
    dof rx ry rz
    limits (-20.0 45.0)
           (-30.0 30.0)
           (-30.0 30.0)
  end
  begin
     id 13 
     name thorax
     direction 0.02365 0.999661 0.0108914   
     length 2.16932   
     axis 0 0 0   XYZ
    dof rx ry rz
    limits (-20.0 45.0)
           (-30.0 30.0)
           (-30.0 30.0)
  end
  begin
     id 14 
     name lowerneck
     direction -0.0523929 0.978385 0.200044   
     length 1.63877   
     axis 0 0 0   XYZ
    dof rx ry rz
    limits (-20.0 45.0)
           (-30.0 30.0)
           (-30.0 30.0)
  end
  begin
     id 15 
     name upperneck
     direction 0.0448674 0.981321 -0.187074   
     length 1.69014   
     axis 0 0 0   XYZ
    dof rx ry rz
    limits (-20.0 45.0)
           (-30.0 30.0)
           (-30.0 30.0)
  end
  begin
     id 16
     name head
     direction 0.0199089 0.996118 -0.0857429  
     length 1.70094  
     axis 0 0 0   XYZ
    dof rx ry rz
    limits (-20.0 45.0)
           (-30.0 30.0)
           (-30.0 30.0)
  end
  begin
     id 17 
     name lclavicle
     direction 0.940366 0.30191 -0.156722  
     length 3.37521  
     axis 0 0 0   XYZ
    dof ry rz
    limits (-20.0 10.0)
           (0.0 20.0)
  end
  begin
     id 18 
     name lhumerus
     direction 1 -4.4897e-011 -1.7911e-027   
     length 5.25287   
     axis 180 -30 -90   XYZ
    dof rx ry rz
    limits (-60.0 90.0)
           (-90.0 90.0)
           (-90.0 90.0)
  end
  begin
     id 19
     name lradius
     direction 1 -4.48951e-011 1.04424e-027   
     length 3.51014   
     axis 180 -30 -90   XYZ
    dof rx
    limits (-10.0 170.0)
  end
  begin
     id 20
     name lwrist
     direction 1 -4.48997e-011 -9.5942e-028   
     length 1.75507   
     axis 8.48502e-016 90 90   XYZ
    dof ry
    limits (-180.0 0.0)
 end
  begin
     id 21 
     name lhand
     direction 1 -4.48831e-011 -1.90777e-027   
     length 0.706179   
     axis 1.22306e-015 90 90   XYZ
    dof rx rz
    limits (-90.0 90.0)
           (-45.0 45.0)
  end
  begin
     id 22 
     name lfingers
     direction 1 -4.49108e-011 -3.85244e-027   
     length 0.569339   
     axis 2.44611e-015 90 90   XYZ
    dof rx
    limits (0.0 90.0)
  end
  begin
     id 23
     name lthumb
     direction 0.707107 -6.34953e-011 0.707107   
     length 0.817461   
     axis -90 45 -1.62303e-014   XYZ
    dof rx rz
    limits (-45.0 45.0)
           (-45.0 45.0)
  end
  begin
     id 24 
     name rclavicle
     direction -0.905329 0.382405 -0.184787   
     length 3.30787  
     axis 0 0 0   XYZ 
    dof ry rz
    limits (-10.0 20.0)
           (-20.0 0.0)
  end
  begin
     id 25 
     name rhumerus
     direction -1 -4.48953e-011 -9.15316e-029  
     length 5.28721   
     axis 180 30 90   XYZ
    dof rx ry rz
    limits (-90.0 60.0)
           (-90.0 90.0)
           (-90.0 90.0)
  end
  begin
     id 26 
     name rradius
     direction -1 -4.48987e-011 9.37824e-028   
     length 3.50544   
     axis 180 30 90   XYZ
    dof rx
    limits (-10.0 170.0)
  end
  begin
     id 27 
     name rwrist
     direction -1 -4.48967e-011 -9.58414e-028   
     length 1.75272   
     axis 8.48502e-016 -90 -90   XYZ
    dof ry
    limits (-180.0 0.0)
  end
  begin
     id 28
     name rhand
     direction -1 -4.48904e-011 -1.91266e-027   
     length 0.884996   
     axis 1.22306e-015 -90 -90   XYZ
    dof rx rz
    limits (-90.0 90.0)
           (-45.0 45.0)
  end
  begin
     id 29
     name rfingers
     direction -1 -4.4909e-011 -3.85015e-027   
     length 0.713507   
     axis 2.44611e-015 -90 -90   XYZ
    dof rx
    limits (0.0 90.0)
  end
  begin
     id 30
     name rthumb
     direction -0.707107 -6.34853e-011 0.707107   
     length 1.02446   
     axis -90 -45 1.62303e-014   XYZ
    dof rx rz
    limits (-45.0 45.0)
           (-45.0 45.0)
  end
:hierarchy
  begin
    root lhipjoint rhipjoint lowerback
    lhipjoint lfemur
    lfemur ltibia
    ltibia lfoot
    lfoot ltoes
    rhipjoint rfemur
    rfemur rtibia
    rtibia rfoot
    rfoot rtoes
    lowerback upperback
    upperback thorax
    thorax lowerneck lclavicle rclavicle
    lowerneck upperneck
    upperneck head
    lclavicle lhumerus
    lhumerus lradius
    lradius lwrist
    lwrist lhand lthumb
    lhand lfingers
    rclavicle rhumerus
    rhumerus rradius
    rradius rwrist
    rwrist rhand rthumb
    rhand rfingers
  end

#!OML:ASF F:\twosubjects\two\Thursday\Session 1\justin.ASF
:FULLY-SPECIFIED
:DEGREES
1
root 0.496243 18.5026 37.8493 -172.157 2.07407 178.326
lowerback 0.344048 -1.24696 -6.1233
upperback -0.336085 -1.69173 1.6391
thorax -0.313044 -0.827456 5.14155
lowerneck -16.7214 -6.58326 -10.4733
upperneck 32.3019 -5.28872 2.82811
head 14.3189 -2.51638 2.19944
rclavicle -8.44835e-016 -9.34288e-015
rhumerus -33.6275 -11.6145 -78.775
rradius 32.2935
rwrist -6.49128
rhand -11.5283 12.9161
rfingers 7.12502
rthumb 14.5115 -16.5564
lclavicle -8.44835e-016 -9.34288e-015
lhumerus -25.411 -2.00763 83.9961
lradius 39.3064
lwrist -1.30892
lhand -4.09115 33.4844
lfingers 7.12502
lthumb 21.6664 62.2921
rfemur -36.018 -5.04291 17.761
rtibia 46.7964
rfoot -14.2227 -12.0936
rtoes -3.37989
lfemur -9.66592 5.92906 -27.1375
ltibia 22.6349
lfoot -17.0951 -4.05025
ltoes -9.82142
2
root 0.515034 18.5125 37.7623 -171.944 2.03505 179.302
lowerback 0.756049 -1.16868 -5.35321
upperback -0.494373 -1.60007 1.97141
thorax -0.730806 -0.764427 5.06395
lowerneck -16.7818 -6.78286 -10.369
upperneck 32.3318 -5.56096 2.66102
head 14.3588 -2.64642 2.06212
rclavicle 2.6339e-015 1.59028e-014
rhumerus -33.8748 -11.0179 -78.89
rradius 32.7608
rwrist -6.99746
rhand -11.0956 12.4403
rfingers 7.12502
rthumb 14.9284 -17.0018
lclavicle 2.6339e-015 1.59028e-014
lhumerus -25.1245 -2.12996 83.8134
lradius 39.907
lwrist -1.1194
lhand -4.37701 33.5214
lfingers 7.12502
lthumb 21.3919 62.3605
rfemur -36.2648 -3.93936 18.9549
rtibia 43.9596
rfoot -13.7397 -12.7393
rtoes -1.94637
lfemur -9.68263 5.88138 -25.9467
ltibia 22.7083
lfoot -17.2661 -3.88195
ltoes -10.9645
3
root 0.525785 18.5191 37.6459 -171.862 2.08005 179.346
lowerback 0.371435 -1.05441 -5.4209
upperback -0.13848 -1.42408 1.97316
thorax -0.168379 -0.702921 5.08979
lowerneck -17.183 -6.93864 -10.213
upperneck 32.1536 -5.87568 2.68154
head 14.384 -2.7798 1.97063
rclavicle 1.46107e-014 1.39149e-014
rhumerus -33.2099 -11.7973 -78.7649
rradius 32.3558
rwrist -6.61844
rhand -10.885 13.0733
rfingers 7.12502
rthumb 15.1313 -16.3535
lclavicle 1.46107e-014 1.39149e-014
lhumerus -23.8633 -2.72236 83.6817
lradius 40.1501
lwrist -0.865138
lhand -4.49105 34.6583
lfingers 7.12502
lthumb 21.2823 63.5098
rfemur -36.3667 -3.37732 19.0674
rtibia 41.3685
rfoot -13.0859 -12.7692
rtoes -0.62135
lfemur -9.03278 5.97801 -25.821
ltibia 22.0931
lfoot -17.3621 -4.03921
ltoes -10.7058
4
root 0.525833 18.5189 37.5147 -171.684 2.0554 179.14
lowerback 0.300855 -1.01306 -5.62974
upperback -0.254666 -1.36841 1.96219
thorax -0.251307 -0.669266 5.19714
lowerneck -16.9993 -7.01272 -10.1694
upperneck 32.0197 -5.97638 2.54452
head 14.2847 -2.8382 1.89078
rclavicle 1.88845e-015 3.18055e-015
rhumerus -32.9723 -12.5495 -78.5701
rradius 31.7568
rwrist -5.82127
rhand -11.1559 13.6677
rfingers 7.12502
rthumb 14.8703 -15.7787
lclavicle 1.88845e-015 3.18055e-015
lhumerus -23.7245 -2.97405 83.5954
lradius 40.8337
lwrist -0.806318
lhand -4.7251 35.4631
lfingers 7.12502
lthumb 21.0575 64.3398
rfemur -36.4524 -3.29822 18.9643
rtibia 38.6289
rfoot -12.3417 -13.0788
rtoes -0.846576
lfemur -8.46342 6.14807 -26.0174
ltibia 21.5415
lfoot -17.5403 -4.31688
ltoes -10.0475
5
root 0.523345 18.5103 37.3876 -171.422 1.81929 179.075
lowerback 1.10073 -1.18717 -5.42092
upperback -1.02903 -1.64741 1.96115
thorax -1.46906 -0.749074 5.10979
lowerneck -16.6414 -7.00029 -10.4003
upperneck 32.5501 -5.77993 2.48374
head 14.4425 -2.75603 1.96315
rclavicle -6.21202e-015 -3.57812e-015
rhumerus -33.8316 -11.902 -78.7068
rradius 31.7559
rwrist -5.63302
rhand -12.0871 12.9439
rfingers 7.12502
rthumb 13.973 -16.5665
lclavicle -6.21202e-015 -3.57812e-015
lhumerus -24.8804 -2.45646 83.2428
lradius 41.8209
lwrist -0.88117
lhand -4.61319 36.0139
lfingers 7.12502
lthumb 21.165 64.8785
rfemur -36.7335 -3.50303 19.1829
rtibia 35.9803
rfoot -11.308 -13.8376
rtoes -2.77366
lfemur -7.87813 6.17457 -26.055
ltibia 20.6955
lfoot -17.4897 -4.5621
ltoes -10.0493
6
root 0.525415 18.5045 37.2603 -171.281 1.66734 178.902
lowerback 0.679195 -1.20576 -5.62462
upperback -0.81766 -1.65192 1.95849
thorax -1.00801 -0.770731 5.20822
lowerneck -16.7585 -7.072 -10.4892
upperneck 32.5241 -5.9408 2.71321
head 14.482 -2.80984 2.03869
rclavicle -4.96962e-015 -1.19271e-015
rhumerus -33.6806 -11.4706 -78.8431
rradius 32.0288
rwrist -6.07678
rhand -12.45 12.3198
rfingers 7.12502
rthumb 13.6233 -17.2144
lclavicle -4.96962e-015 -1.19271e-015
lhumerus -24.084 -2.4181 83.043
lradius 42.0874
lwrist -0.76864
lhand -4.29925 36.5902
lfingers 7.12502
lthumb 21.4666 65.4208
rfemur -36.8924 -3.59221 19.2762
rtibia 33.4508
rfoot -10.0202 -13.6576
rtoes -1.43958
lfemur -7.09884 6.19667 -26.1931
ltibia 19.7669
lfoot -17.3162 -4.71157
ltoes -9.99962
7
root 0.523732 18.5024 37.1357 -170.972 1.92304 178.818
lowerback 0.232161 -1.04969 -5.64008
upperback -0.760998 -1.41897 1.88805
thorax -0.730371 -0.664697 5.1308
lowerneck -16.6712 -7.13964 -10.5014
upperneck 32.3809 -6.12221 2.87928
head 14.4186 -2.87135 2.07461
rclavicle -4.77083e-015 -9.54166e-015
rhumerus -33.7171 -11.3878 -78.8837
rradius 32.3144
rwrist -6.25421
rhand -11.9585 12.6785
rfingers 7.12502
rthumb 14.097 -16.8233
lclavicle -4.77083e-015 -9.54166e-015
lhumerus -23.2579 -2.95886 82.8802
lradius 41.9608
lwrist -0.52418
lhand -4.14209 36.4428
lfingers 7.12502
lthumb 21.6175 65.2561
rfemur -37.2118 -3.38656 19.3475
rtibia 31.0821
rfoot -9.36475 -12.6808
rtoes 0.793432
lfemur -6.43668 6.49309 -26.3535
ltibia 18.694
lfoot -17.0258 -4.66609
ltoes -10.6945
8
root 0.523927 18.4961 37.0071 -170.745 1.98905 178.804
lowerback 0.305255 -0.929185 -5.61516
upperback -0.911296 -1.26285 1.8564
thorax -0.948169 -0.575071 5.08653
lowerneck -16.6863 -7.32266 -10.1249
upperneck 32.3776 -6.42189 2.59159
head 14.4132 -2.99427 1.83783
rclavicle -2.00276e-014 -3.97569e-015
rhumerus -33.9335 -11.3969 -79.0263
rradius 32.7406
rwrist -6.40329
rhand -11.705 12.5172
rfingers 7.12502
rthumb 14.3413 -16.9675
lclavicle -2.00276e-014 -3.97569e-015
lhumerus -23.1551 -3.46547 82.7532
lradius 42.3073
lwrist -0.380139
lhand -4.16957 35.7603
lfingers 7.12502
lthumb 21.5911 64.5767
rfemur -37.3508 -3.00532 19.3089
rtibia 28.8983
rfoot -9.28842 -12.037
rtoes 0.180044
lfemur -5.6415 6.74338 -26.3982
ltibia 17.5719
lfoot -16.9446 -4.69244
ltoes -12.2
9
root 0.528351 18.4958 36.8653 -171.029 1.1671 178.536
lowerback 0.599621 -1.28557 -5.64581
upperback -0.70777 -1.75697 1.78089
thorax -0.840902 -0.833265 5.03153
lowerneck -17.0007 -7.38712 -9.52573
upperneck 32.2256 -6.58771 2.13902
head 14.373 -3.07238 1.5089
rclavicle 9.44227e-015 1.19271e-014
rhumerus -33.4914 -11.1787 -79.5371
rradius 32.9223
rwrist -6.46472
rhand -11.9905 12.017
rfingers 7.12502
rthumb 14.0661 -17.487
lclavicle 9.44227e-015 1.19271e-014
lhumerus -23.011 -3.27923 82.315
lradius 43.0074
lwrist -0.189487
lhand -4.45023 35.6731
lfingers 7.12502
lthumb 21.3216 64.5202
rfemur -36.7404 -2.8741 18.813
rtibia 26.9255
rfoot -9.7858 -11.9428
rtoes -1.55443
lfemur -4.31449 6.53202 -26.4306
ltibia 16.6389
lfoot -17.128 -5.28013
ltoes -12.4302
10
root 0.536134 18.4949 36.7274 -171.24 0.478137 178.395
lowerback 0.852644 -1.37112 -6.03374
upperback -0.890413 -1.88854 2.04287
thorax -1.13456 -0.879296 5.53712
lowerneck -16.1386 -7.29361 -10.4803
upperneck 32.3549 -6.318 2.7397
head 14.3008 -2.95855 1.99342
rclavicle -4.22417e-015 -2.78299e-015
rhumerus -34.2182 -10.6632 -79.0665
rradius 33.372
rwrist -6.8835
rhand -12.1582 11.9919
rfingers 7.12502
rthumb 13.9045 -17.5233
lclavicle -4.22417e-015 -2.78299e-015
lhumerus -23.0162 -3.69432 82.7041
lradius 43.0737
lwrist 0.0519613
lhand -4.87954 36.2124
lfingers 7.12502
lthumb 20.9092 65.1055
rfemur -36.2778 -2.60349 18.4377
rtibia 25.3187
rfoot -10.7053 -11.7256
rtoes -3.78326
lfemur -3.07077 6.28016 -26.3454
ltibia 15.6679
lfoot -16.9476 -5.81306
ltoes -12.4
11
root 0.539595 18.4855 36.5961 -171.157 0.303303 178.263
lowerback 1.23764 -1.36813 -6.03539
upperback -0.913306 -1.91061 1.94685
thorax -1.37482 -0.882341 5.44977
lowerneck -17.1559 -7.16285 -10.4042
upperneck 32.9322 -6.12784 3.03634
head 14.7802 -2.81772 2.12524
rclavicle 3.47873e-015 -5.1684e-015
rhumerus -34.5152 -10.0693 -79.2689
rradius 33.8477
rwrist -7.39785
rhand -11.9531 12.0906
rfingers 7.12502
rthumb 14.1022 -17.4109
lclavicle 3.47873e-015 -5.1684e-015
lhumerus -22.0215 -4.1365 82.3868
lradius 42.5949
lwrist 0.193887
lhand -4.973 36.0297
lfingers 7.12502
lthumb 20.8194 64.9327
rfemur -36.3166 -2.5381 18.3117
rtibia 24.0507
rfoot -11.542 -11.0536
rtoes -6.68497
lfemur -2.2022 6.06432 -26.4395
ltibia 14.7451
lfoot -16.5954 -5.92824
ltoes -12.2429
